HIERARCHY
ROOT joint_Root
{
	OFFSET 0.0 0.0 0.0
	CHANNELS 6 Xposition Yposition Zposition Zrotation Xrotation Yrotation 
	JOINT Hips
	{
		OFFSET -0.726466 93.3139 -2.00062
		CHANNELS 6 Xposition Yposition Zposition Zrotation Xrotation Yrotation 
		JOINT Spine
		{
			OFFSET 15.7357 0.0 0.0
			CHANNELS 6 Xposition Yposition Zposition Zrotation Xrotation Yrotation 
			JOINT Chest
			{
				OFFSET 8.98455 -0.406207 0.0
				CHANNELS 6 Xposition Yposition Zposition Zrotation Xrotation Yrotation 
				JOINT Neck
				{
					OFFSET 16.3773 0.0 0.0
					CHANNELS 6 Xposition Yposition Zposition Zrotation Xrotation Yrotation 
					JOINT Head
					{
						OFFSET 6.45672 0.0 0.0
						CHANNELS 6 Xposition Yposition Zposition Zrotation Xrotation Yrotation 
						End Site
						{
							OFFSET 0.0 0.0 0.0
						}
					}
				}
				JOINT Shoulder_L
				{
					OFFSET 12.9942 -0.242716 4.98039
					CHANNELS 6 Xposition Yposition Zposition Zrotation Xrotation Yrotation 
					JOINT UpperArm_L
					{
						OFFSET 5.34809 0.0 0.0
						CHANNELS 6 Xposition Yposition Zposition Zrotation Xrotation Yrotation 
						JOINT LowerArm_L
						{
							OFFSET 24.3286 1.87007e-05 0.0
							CHANNELS 6 Xposition Yposition Zposition Zrotation Xrotation Yrotation 
							JOINT Hand_L
							{
								OFFSET 22.2916 0.0 0.0
								CHANNELS 6 Xposition Yposition Zposition Zrotation Xrotation Yrotation 
								End Site
								{
									OFFSET 0.0 0.0 0.0
								}
							}
						}
					}
				}
				JOINT Shoulder_R
				{
					OFFSET 12.9945 -0.242716 -4.98039
					CHANNELS 6 Xposition Yposition Zposition Zrotation Xrotation Yrotation 
					JOINT UpperArm_R
					{
						OFFSET -5.34813 0.0 0.0
						CHANNELS 6 Xposition Yposition Zposition Zrotation Xrotation Yrotation 
						JOINT LowerArm_R
						{
							OFFSET -24.3289 0.000322201 0.0
							CHANNELS 6 Xposition Yposition Zposition Zrotation Xrotation Yrotation 
							JOINT Hand_R
							{
								OFFSET -22.2915 -0.000108084 0.0
								CHANNELS 6 Xposition Yposition Zposition Zrotation Xrotation Yrotation 
								End Site
								{
									OFFSET 0.0 0.0 0.0
								}
							}
						}
					}
				}
			}
		}
		JOINT UpperLeg_L
		{
			OFFSET -2.19248 -6.46944 0.0
			CHANNELS 6 Xposition Yposition Zposition Zrotation Xrotation Yrotation 
			JOINT LowerLeg_L
			{
				OFFSET 39.0811 0.0 -1.23785e-05
				CHANNELS 6 Xposition Yposition Zposition Zrotation Xrotation Yrotation 
				JOINT Foot_L
				{
					OFFSET 40.9854 0.0 -1.26872e-05
					CHANNELS 6 Xposition Yposition Zposition Zrotation Xrotation Yrotation 
					JOINT Toes_L
					{
						OFFSET 11.7543 0.0 0.0
						CHANNELS 6 Xposition Yposition Zposition Zrotation Xrotation Yrotation 
						End Site
						{
							OFFSET 0.0 0.0 0.0
						}
					}
				}
			}
		}
		JOINT UpperLeg_R
		{
			OFFSET -2.19251 6.46944 0.0
			CHANNELS 6 Xposition Yposition Zposition Zrotation Xrotation Yrotation 
			JOINT LowerLeg_R
			{
				OFFSET -39.0811 -0.00228153 -0.0401928
				CHANNELS 6 Xposition Yposition Zposition Zrotation Xrotation Yrotation 
				JOINT Foot_R
				{
					OFFSET -40.9854 0.0 0.0
					CHANNELS 6 Xposition Yposition Zposition Zrotation Xrotation Yrotation 
					JOINT Toes_R
					{
						OFFSET -11.7543 0.0 0.0
						CHANNELS 6 Xposition Yposition Zposition Zrotation Xrotation Yrotation 
						End Site
						{
							OFFSET 0.0 0.0 0.0
						}
					}
				}
			}
		}
	}
}
MOTION
Frames:	4
Frame Time:	0.0333333
0.000000 0.000000 0.000000 0.000000 0.000000 -0.000000 -0.887064 92.167600 0.170230 87.994600 -1.404940 4.262970 15.735700 0.000005 -0.000001 77.939000 87.001400 -77.187400 8.984550 -0.406207 -0.000000 -1.892290 -1.316150 1.481100 16.377300 -0.000001 -0.000001 1.597840 -1.072020 1.015500 6.456720 -0.000001 -0.000000 0.606922 -0.674657 -0.101351 12.994200 -0.242716 4.980390 -83.526500 -12.937100 -63.123400 5.348090 -0.000007 -0.000001 -50.695200 -58.009300 -74.262000 24.328600 0.000019 0.000005 -0.876098 -0.279660 -72.294300 22.291600 -0.000001 0.000005 17.933700 5.632030 -13.487300 12.994500 -0.242716 -4.980390 93.636700 -7.684180 -64.576800 -5.348130 -0.000001 -0.000004 -41.043400 -58.504100 -84.456100 -24.328900 0.000322 -0.000009 3.425020 2.145870 -57.979600 -22.291500 -0.000108 -0.000004 21.605000 5.591290 -10.830500 -2.192480 -6.469440 -0.000000 -169.677000 -20.138300 -1.328650 39.081100 -0.000007 -0.000012 -0.137900 0.341272 22.002700 40.985400 -0.000006 -0.000013 -5.448170 0.296106 -64.097400 11.754300 -0.000000 0.000003 -0.000163 -0.001556 -16.636600 -2.192510 6.469440 -0.000001 174.023000 23.274700 -179.580000 -39.081100 -0.002282 -0.040193 0.024722 -0.057363 20.459600 -40.985400 0.000008 0.000006 -0.647315 3.703010 -63.684600 -11.754300 -0.000006 -0.000006 -0.003917 -0.050578 -18.630400
0.000000 0.000000 0.000000 0.000000 0.000000 -0.000000 -0.874227 92.165000 0.159203 87.972600 -1.393090 4.224990 15.735700 0.000005 -0.000001 78.843900 86.988300 -78.085700 8.984550 -0.406207 -0.000000 -1.848060 -1.228720 1.496350 16.377300 -0.000001 -0.000001 1.613800 -0.993779 1.062600 6.456720 -0.000001 -0.000000 0.613806 -0.618489 -0.191762 12.994200 -0.242716 4.980390 -83.562300 -12.925200 -63.231300 5.348090 -0.000007 -0.000001 -51.499300 -57.103000 -72.260800 24.328600 0.000019 0.000005 -1.512230 -0.385822 -75.689200 22.291600 -0.000001 0.000005 16.335900 5.624240 -12.914500 12.994500 -0.242716 -4.980390 93.467200 -7.305890 -64.524400 -5.348130 -0.000001 -0.000004 -39.909900 -57.851900 -81.852600 -24.328900 0.000322 -0.000009 2.568170 1.417480 -61.138200 -22.291500 -0.000108 -0.000004 19.981200 5.576400 -10.018900 -2.192480 -6.469440 -0.000000 -169.685000 -20.111300 -1.409420 39.081100 -0.000007 -0.000012 -0.138502 0.341845 22.055900 40.985400 -0.000006 -0.000013 -5.447440 0.255165 -64.118400 11.754300 -0.000000 0.000003 -0.000149 -0.001442 -16.632400 -2.192510 6.469440 -0.000001 174.052000 23.321300 -179.625000 -39.081100 -0.002282 -0.040193 0.025030 -0.058184 20.461300 -40.985400 0.000008 0.000006 -0.626806 3.725010 -63.684900 -11.754300 -0.000006 -0.000006 -0.003950 -0.050916 -18.644200
0.000000 0.000000 0.000000 0.000000 0.000000 -0.000000 -0.864719 92.158000 0.149827 87.975400 -1.350340 4.251780 15.735700 0.000005 -0.000001 80.079000 86.948500 -79.329600 8.984550 -0.406207 -0.000000 -1.746750 -1.113410 1.481420 16.377300 -0.000001 -0.000001 1.639770 -0.936777 1.098610 6.456720 -0.000001 -0.000000 0.545610 -0.665598 -0.212675 12.994200 -0.242716 4.980390 -83.640700 -12.869300 -63.417300 5.348090 -0.000007 -0.000001 -52.088800 -55.805400 -69.410700 24.328600 0.000019 0.000005 -1.872710 -0.335704 -79.837900 22.291600 -0.000001 0.000005 15.311800 5.619120 -12.559300 12.994500 -0.242716 -4.980390 93.210400 -6.688680 -64.285700 -5.348130 -0.000001 -0.000004 -38.430400 -56.706800 -78.703100 -24.328900 0.000322 -0.000009 1.462510 0.685965 -64.905800 -22.291500 -0.000108 -0.000004 18.831900 5.561410 -9.255330 -2.192480 -6.469440 -0.000000 -169.684000 -20.136200 -1.426460 39.081100 -0.000007 -0.000012 -0.138518 0.340760 22.121700 40.985400 -0.000006 -0.000013 -5.422510 0.321600 -64.140600 11.754300 -0.000000 0.000003 -0.000145 -0.001407 -16.631100 -2.192510 6.469440 -0.000001 174.029000 23.332200 -179.588000 -39.081100 -0.002282 -0.040193 0.025534 -0.059537 20.461100 -40.985400 0.000008 0.000006 -0.655614 3.689130 -63.720600 -11.754300 -0.000006 -0.000006 -0.004084 -0.052314 -18.701100
0.000000 0.000000 0.000000 0.000000 0.000000 -0.000000 -0.851910 92.152600 0.142745 87.992100 -1.244830 4.281030 15.735700 0.000005 -0.000001 80.282100 86.883700 -79.560800 8.984550 -0.406207 -0.000000 -1.615600 -1.110840 1.426740 16.377300 -0.000001 -0.000001 1.556570 -0.902498 1.150720 6.456720 -0.000001 -0.000000 0.558343 -0.590876 -0.176235 12.994200 -0.242716 4.980390 -83.864300 -12.568300 -63.709800 5.348090 -0.000007 -0.000001 -51.565100 -54.437900 -65.435100 24.328600 0.000019 0.000005 -2.104410 -0.210868 -84.280100 22.291600 -0.000001 0.000005 14.607000 5.614540 -12.253100 12.994500 -0.242716 -4.980390 92.929100 -6.068680 -64.174000 -5.348130 -0.000001 -0.000004 -36.576600 -55.095900 -74.563100 -24.328900 0.000322 -0.000009 0.499405 0.187412 -69.510400 -22.291500 -0.000108 -0.000004 17.657600 5.542620 -8.360560 -2.192480 -6.469440 -0.000000 -169.689000 -20.125000 -1.442130 39.081100 -0.000007 -0.000012 -0.140152 0.344163 22.157500 40.985400 -0.000006 -0.000013 -5.390140 0.461871 -64.137000 11.754300 -0.000000 0.000003 -0.000153 -0.001479 -16.633700 -2.192510 6.469440 -0.000001 173.988000 23.396500 -179.552000 -39.081100 -0.002282 -0.040193 0.025203 -0.058607 20.474600 -40.985400 0.000008 0.000006 -0.626113 3.666810 -63.769500 -11.754300 -0.000006 -0.000006 -0.003884 -0.050233 -18.616400
